HIERARCHY
ROOT joint_0
{
	OFFSET 0.000000 0.000000 0.000000
	CHANNELS 6 Xposition Yposition Zposition Zrotation Yrotation Xrotation 
	JOINT joint_1
	{
		OFFSET 0.000000 0.000000 0.000000
		CHANNELS 3 Zrotation Yrotation Xrotation
		JOINT joint_2
		{
			OFFSET 3.811170 -8.520760 0.839290
			CHANNELS 3 Zrotation Yrotation Xrotation
			JOINT joint_3
			{
				OFFSET 2.562200 -7.039590 0.000000
				CHANNELS 3 Zrotation Yrotation Xrotation
				JOINT joint_4
				{
					OFFSET 0.157640 -0.433110 2.322550
					CHANNELS 3 Zrotation Yrotation Xrotation
					End Site
					{
						OFFSET 0.000000 0.000000 0.000000
					}
				}
			}
		}
	}
	JOINT joint_5
	{
		OFFSET 0.000000 0.000000 0.000000
		CHANNELS 3 Zrotation Yrotation Xrotation
		JOINT joint_6
		{
			OFFSET -3.848050 -8.780180 0.839290
			CHANNELS 3 Zrotation Yrotation Xrotation
			JOINT joint_7
			{
				OFFSET -2.568260 -7.056230 0.000000
				CHANNELS 3 Zrotation Yrotation Xrotation
				JOINT joint_8
				{
					OFFSET -0.164730 -0.452590 2.363150
					CHANNELS 3 Zrotation Yrotation Xrotation
					End Site
					{
						OFFSET 0.000000 0.000000 0.000000
					}
				}
			}
		}
	}
	JOINT joint_9
	{
		OFFSET 0.028270 2.035590 -0.193380
		CHANNELS 3 Zrotation Yrotation Xrotation
		JOINT joint_10
		{
			OFFSET 0.056720 2.048850 -0.042750
			CHANNELS 3 Zrotation Yrotation Xrotation
			JOINT joint_11
			{
				OFFSET -0.054170 1.746240 0.172020
				CHANNELS 3 Zrotation Yrotation Xrotation
				JOINT joint_12
				{
					OFFSET 0.104070 1.761360 -0.123970
					CHANNELS 3 Zrotation Yrotation Xrotation
					End Site
					{
						OFFSET 0.000000 0.000000 0.000000
					}
				}
			}
			JOINT joint_13
			{
				OFFSET 3.362410 1.200890 -0.311210
				CHANNELS 3 Zrotation Yrotation Xrotation
				JOINT joint_14
				{
					OFFSET 4.983000 -0.000000 -0.000000
					CHANNELS 3 Zrotation Yrotation Xrotation
					JOINT joint_15
					{
						OFFSET 3.483560 -0.000000 -0.000000
						CHANNELS 3 Zrotation Yrotation Xrotation
						JOINT joint_16
						{
							OFFSET 0.715260 -0.000000 -0.000000
							CHANNELS 3 Zrotation Yrotation Xrotation
							End Site
							{
								OFFSET 0.000000 0.000000 0.000000
							}
						}
					}
				}
			}
			JOINT joint_17
			{
				OFFSET -3.136600 1.374050 -0.404650
				CHANNELS 3 Zrotation Yrotation Xrotation
				JOINT joint_18
				{
					OFFSET -5.241900 -0.000000 -0.000000
					CHANNELS 3 Zrotation Yrotation Xrotation
					JOINT joint_19
					{
						OFFSET -3.444170 -0.000000 -0.000000
						CHANNELS 3 Zrotation Yrotation Xrotation
						JOINT joint_20
						{
							OFFSET -0.622530 -0.000000 -0.000000
							CHANNELS 3 Zrotation Yrotation Xrotation
							End Site
							{
								OFFSET 0.000000 0.000000 0.000000
							}
						}
					}
				}
			}
		}
	}
}
MOTION
Frames: 10
Frame Time: 0.031667
-2.459858 14.507683 5.742495 170.276443 -42.221558 178.379807 -36.152223 -27.249663 -28.475175 -11.982240 10.196221 29.257202 -4.761388 3.514581 -21.975034 0.508665 -0.892891 0.756992 -9.574828 -2.525060 14.787191 17.520425 2.647934 -7.452080 -11.721133 -0.516852 -69.641351 0.872541 -0.871954 2.028239 2.351869 3.980948 -0.184505 -1.246679 0.321820 -2.889609 4.800723 1.973202 0.485631 -1.674886 2.122947 7.564765 -67.439118 -1.748591 1.337071 14.936123 -48.191140 3.018896 3.261968 4.158148 -0.195033 -6.458564 -0.584829 0.615426 108.923227 13.517643 48.996739 -100.080020 78.430539 -43.547674 2.239296 -4.577508 0.656479 7.845777 -0.662124 0.650641 
-2.618448 14.527208 5.658350 170.375656 -37.557163 178.634201 -33.371532 -24.348046 -32.897480 -12.076789 11.162741 30.541379 -1.299876 2.948660 -14.665713 0.614904 -0.885227 0.896296 -9.817593 -2.659180 15.135102 17.777567 2.121025 -7.651678 -12.546168 -0.015434 -69.663519 0.919747 -0.462114 0.892931 1.679864 3.675204 -0.084182 -0.852876 0.134647 -2.216994 4.858567 2.425736 0.809761 -1.625948 2.165407 7.750927 -66.083123 -1.843520 1.185601 14.361551 -49.481206 2.861798 2.867374 4.242862 0.432969 -6.440966 -0.598290 0.635179 108.940091 14.518162 49.470503 -97.481537 78.451877 -42.457351 2.541183 -4.384741 0.460287 7.882085 -0.680955 0.669800 
-2.764054 14.545231 5.564871 170.413406 -32.941769 178.892181 -31.316320 -21.530912 -36.691730 -12.265890 11.226362 31.188912 1.052455 2.035043 -9.788425 0.679888 -0.897015 0.974626 -9.983221 -3.436643 15.770590 17.887888 2.077893 -8.538698 -13.210954 -0.435162 -69.533361 0.924206 -0.040555 -0.272934 1.153258 3.754039 -0.434709 -1.039721 0.144808 -1.885066 4.527699 1.380000 0.958053 -1.453288 2.058637 7.751741 -64.816902 -2.287461 1.154566 14.442938 -50.227084 2.486287 2.730934 4.386544 0.697435 -6.422745 -0.611510 0.651697 109.148324 14.906631 49.153534 -97.747060 78.441272 -41.497336 2.867848 -4.737902 0.612630 7.915221 -0.695716 0.684973 
-2.906213 14.562422 5.467940 170.488632 -28.315804 179.197021 -29.136236 -18.566752 -39.874865 -12.089083 11.666676 31.758210 2.282385 -0.054238 -7.133611 0.693823 -1.085663 0.486062 -10.271175 -3.881150 15.690850 17.917436 2.307862 -9.679805 -13.197573 -0.975243 -69.436335 0.848740 0.347024 -1.317690 0.496390 3.329577 -0.014508 -1.739536 0.430100 -1.866313 4.373078 0.695344 1.260229 -1.273927 1.845601 7.628047 -63.526676 -2.749879 0.726437 15.182552 -51.014841 2.085390 2.500589 4.464617 1.392601 -6.419167 -0.618428 0.657248 108.981479 15.660424 48.583270 -100.736749 78.245248 -41.743438 3.023065 -4.686460 0.348381 7.934963 -0.701654 0.690191 
-3.037075 14.576888 5.359700 170.548111 -23.823706 179.467407 -27.130052 -16.517051 -41.501333 -12.007988 12.058588 31.983750 3.427297 -2.195893 -5.643020 0.690477 -1.458324 -0.503076 -10.677078 -4.099252 15.790888 18.221868 2.607386 -9.695981 -12.624106 -2.286357 -68.813014 0.759090 0.612984 -2.054618 0.257130 3.540908 -0.445104 -1.401695 0.424503 -1.574815 4.111911 0.846088 1.221254 -1.018371 1.705538 7.383849 -62.006542 -2.871205 0.206456 15.191491 -52.018289 1.399320 2.771147 4.505608 2.227627 -6.410628 -0.624863 0.665882 108.506458 15.802413 48.600502 -99.167088 78.565285 -40.181419 2.774551 -4.673500 0.506037 7.958068 -0.709585 0.698228 
-3.164959 14.590025 5.247998 170.648514 -19.354546 179.764572 -25.353252 -14.251710 -43.316632 -12.316418 12.738151 32.504731 4.061786 -3.645724 -5.479536 0.682882 -1.726562 -1.274962 -10.847216 -4.354579 15.122568 18.377958 2.327716 -9.964705 -12.474804 -3.069393 -68.005039 0.721172 0.690735 -2.247821 -0.192092 3.789667 -0.943187 -1.797358 0.744503 -1.586779 3.610263 0.675847 1.132265 -0.828113 1.590371 7.029788 -61.046374 -3.110761 -0.364317 15.196142 -53.116604 1.181854 2.390243 4.413843 2.898008 -6.416859 -0.611738 0.657612 108.363191 16.309332 48.587755 -99.286200 78.615558 -40.554236 3.031163 -4.818900 0.379079 7.962260 -0.699874 0.689048 
-3.282469 14.598531 5.124234 170.778320 -15.053505 -179.976471 -24.241589 -12.357779 -44.700621 -12.416883 13.099156 32.673068 4.561108 -4.641132 -5.289298 0.681995 -1.756816 -1.385844 -11.485659 -4.874668 14.292762 18.584636 1.756059 -10.509111 -12.091089 -4.336298 -67.372162 0.739244 0.582217 -1.940652 -0.108659 3.633454 -1.024885 -2.026167 1.186357 -1.568582 3.589837 0.199816 0.943676 -0.526165 1.325566 6.593306 -59.689103 -3.070279 -0.481682 15.516978 -54.194712 0.606373 2.169093 4.738106 3.217060 -6.417739 -0.601604 0.650262 108.024297 16.472839 48.313807 -98.799880 78.499186 -39.898795 3.187449 -4.406271 0.419428 7.958794 -0.692753 0.681764 
-3.397201 14.605514 4.997565 170.957077 -10.781870 -179.693497 -23.328098 -10.699537 -45.120825 -12.433925 13.120560 32.731068 5.241382 -5.989628 -5.386383 0.721047 -1.586794 -0.860854 -11.812964 -5.199109 13.766909 18.672460 1.951872 -10.878380 -11.714387 -5.927205 -66.401951 0.781538 0.356794 -1.338953 -0.207944 3.600083 -1.886603 -1.967961 0.887127 -1.663322 3.018454 -0.398760 0.457130 -0.286176 0.946916 6.221922 -58.286835 -3.004314 -0.688300 15.969410 -54.969713 0.221597 2.024946 4.576526 3.517654 -6.404597 -0.608837 0.657955 107.789200 16.606104 48.150225 -97.942521 78.692947 -38.837003 3.311070 -4.536019 0.659802 7.974411 -0.700049 0.688705 
-3.501622 14.606843 4.860115 171.189468 -6.673385 -179.448105 -22.140544 -9.114357 -45.418687 -12.517089 13.465346 32.878203 5.390139 -7.352873 -5.151468 0.746306 -1.443696 -0.500730 -12.129411 -5.450940 13.133518 19.272474 1.965549 -11.650018 -11.142338 -7.279205 -65.578204 0.759201 0.228120 -0.973208 -0.381835 3.861439 -2.098542 -2.388808 1.149827 -1.817665 2.429366 -0.745356 0.003896 -0.097316 0.721308 5.795776 -57.307128 -2.875023 -0.951402 16.257125 -55.552964 0.179429 1.638367 4.792413 3.520598 -6.404500 -0.605064 0.651636 107.295684 16.714161 47.854129 -98.176280 78.605222 -37.693521 3.330477 -4.660926 0.965088 7.973455 -0.694571 0.681940 
-3.603539 14.607029 4.720396 171.478287 -2.584581 -179.173004 -20.994017 -8.196070 -45.361765 -12.520291 13.716822 32.935381 5.697200 -9.071726 -4.939600 0.763012 -1.453277 -0.561407 -12.512073 -5.851015 12.647187 19.388078 2.105796 -12.337633 -10.175055 -8.834014 -63.803719 0.689408 0.363871 -1.335682 -0.511269 4.026766 -2.607241 -2.544279 1.405311 -2.228394 2.012810 -0.883103 -0.403537 0.089931 0.501348 5.493783 -56.298747 -2.935198 -0.763166 17.213415 -56.375717 -0.386466 1.308260 4.717437 3.359515 -6.407207 -0.601187 0.644416 106.933554 17.031950 47.436385 -97.676355 78.753372 -36.471408 3.482819 -4.618113 1.471899 7.969034 -0.689120 0.674944 
